<svg width="256" height="256" viewBox="0 0 256 256" fill="none" xmlns="http://www.w3.org/2000/svg">
<rect width="256" height="256" fill="#FBF7FF"/>
<path d="M140.551 73.4289H109.374V57.8165C109.374 52.2956 107.184 47.0009 103.286 43.097C99.388 39.1932 94.1012 37 88.5887 37H73V198.328C73 203.849 75.1898 209.144 79.0878 213.047C82.9857 216.951 88.2724 219.144 93.7849 219.144H109.374V182.716H140.551C154.654 182.181 168.002 176.195 177.791 166.013C187.581 155.831 193.05 142.246 193.05 128.111C193.05 113.976 187.581 100.392 177.791 90.2097C168.002 80.0278 154.654 74.0411 140.551 73.5069V73.4289ZM140.551 146.287H109.374V109.858H140.551C150.944 109.858 158.088 118.093 158.088 128.072C158.088 138.051 150.944 146.248 140.551 146.248V146.287Z" fill="url(#paint0_linear_120_56)"/>
<defs>
<linearGradient id="paint0_linear_120_56" x1="133.025" y1="37" x2="133.025" y2="219.144" gradientUnits="userSpaceOnUse">
<stop stop-color="#523ADF"/>
<stop offset="1" stop-color="#8974FF"/>
</linearGradient>
</defs>
</svg>
